# xmcd
#
# Track frame offsets:
#	150
#	15085
#	28485
#	42389
#	59331
#	77027
#	88541
#	103948
#	116995
#	131928
#	151666
#	164465
#	183454
#	199092
#	214100
#	232327
#	246318
#	257620
#	272085
#	284121
#
# Disc length: 3972 seconds
# Revision: 0
# Processed by: cddbd v1.5.2PL0 Copyright (c) Steve Scherf et al.
# Submitted via: dBpowerAMP V12.0
#
DISCID=2f0f8214
DTITLE=Dean Dillon - Slick Nickel - I've Learned to Live
DYEAR=2013
DGENRE=Country
TTITLE0=Hey, Heart
TTITLE1=The New Never Wore off My Sweet Baby
TTITLE2=When the Feelin's Right
TTITLE3=I Go to Peices
TTITLE4=Hard Time for Lovers
TTITLE5=Appalachia-Got-to-Have-You Feelin' in My Bones
TTITLE6=You Sure Got This Ol' Redneck Feelin' Blue
TTITLE7=Still Got a Crush on You
TTITLE8=Station to Station
TTITLE9=Father, Son, and Holy Ghost
TTITLE10=Just in Time
TTITLE11=Changes Comin' On
TTITLE12=Who Do You Think You Are?
TTITLE13=Don't You Even Think about Leaving
TTITLE14=I've Learned to Live
TTITLE15=It's Love That Makes You Sexy
TTITLE16=Back in the Swing of Things
TTITLE17=Summer Was a Bummer
TTITLE18=Her Thinkin' I'm Doin' Her Wrong
TTITLE19=Holdin' Pattern
EXTD=
EXTT0=
EXTT1=
EXTT2=
EXTT3=
EXTT4=
EXTT5=
EXTT6=
EXTT7=
EXTT8=
EXTT9=
EXTT10=
EXTT11=
EXTT12=
EXTT13=
EXTT14=
EXTT15=
EXTT16=
EXTT17=
EXTT18=
EXTT19=
PLAYORDER=
